<svg width="1490" height="1376" viewBox="0 0 1490 1376" fill="none" xmlns="http://www.w3.org/2000/svg">
<line x1="1489" y1="4.37114e-08" x2="1489" y2="903" stroke="white" stroke-opacity="0.03" stroke-width="2"/>
<line x1="409" y1="1" x2="409" y2="904" stroke="white" stroke-opacity="0.03" stroke-width="2"/>
<line x1="949" y1="4.37114e-08" x2="949" y2="903" stroke="white" stroke-opacity="0.03" stroke-width="2"/>
<line x1="1402.5" y1="473" x2="1402.5" y2="1376" stroke="white" stroke-opacity="0.03" stroke-width="3"/>
<line x1="349.5" y1="1" x2="349.5" y2="904" stroke="white" stroke-opacity="0.03" stroke-width="3"/>
<line x1="889.5" y1="6.55671e-08" x2="889.5" y2="903" stroke="white" stroke-opacity="0.03" stroke-width="3"/>
<line x1="1189.5" y1="6.55671e-08" x2="1189.5" y2="903" stroke="white" stroke-opacity="0.03" stroke-width="3"/>
<line x1="109.5" y1="1" x2="109.5" y2="904" stroke="white" stroke-opacity="0.03" stroke-width="3"/>
<line x1="649.5" y1="6.55671e-08" x2="649.5" y2="903" stroke="white" stroke-opacity="0.03" stroke-width="3"/>
<line x1="1369.5" y1="6.55671e-08" x2="1369.5" y2="903" stroke="white" stroke-opacity="0.03" stroke-width="3"/>
<line x1="289.5" y1="1" x2="289.5" y2="904" stroke="white" stroke-opacity="0.03" stroke-width="3"/>
<line x1="829.5" y1="6.55671e-08" x2="829.5" y2="903" stroke="white" stroke-opacity="0.03" stroke-width="3"/>
<line x1="1129.5" y1="6.55671e-08" x2="1129.5" y2="903" stroke="white" stroke-opacity="0.03" stroke-width="3"/>
<line x1="49.5001" y1="1" x2="49.5001" y2="904" stroke="white" stroke-opacity="0.03" stroke-width="3"/>
<line x1="589.5" y1="6.55671e-08" x2="589.5" y2="903" stroke="white" stroke-opacity="0.03" stroke-width="3"/>
<line x1="1249.5" y1="6.55671e-08" x2="1249.5" y2="903" stroke="white" stroke-opacity="0.03" stroke-width="3"/>
<line x1="169.5" y1="1" x2="169.5" y2="904" stroke="white" stroke-opacity="0.03" stroke-width="3"/>
<line x1="709.5" y1="6.55671e-08" x2="709.5" y2="903" stroke="white" stroke-opacity="0.03" stroke-width="3"/>
<line x1="1009.5" y1="6.55671e-08" x2="1009.5" y2="903" stroke="white" stroke-opacity="0.03" stroke-width="3"/>
<line x1="469.5" y1="6.55671e-08" x2="469.5" y2="903" stroke="white" stroke-opacity="0.03" stroke-width="3"/>
<line x1="1309.5" y1="6.55671e-08" x2="1309.5" y2="903" stroke="white" stroke-opacity="0.03" stroke-width="3"/>
<line x1="229.5" y1="1" x2="229.5" y2="904" stroke="white" stroke-opacity="0.03" stroke-width="3"/>
<line x1="769.5" y1="6.55671e-08" x2="769.5" y2="903" stroke="white" stroke-opacity="0.03" stroke-width="3"/>
<line x1="1069.5" y1="6.55671e-08" x2="1069.5" y2="903" stroke="white" stroke-opacity="0.03" stroke-width="3"/>
<line x1="529.5" y1="6.55671e-08" x2="529.5" y2="903" stroke="white" stroke-opacity="0.03" stroke-width="3"/>
</svg>
