<svg width="1515" height="904" viewBox="0 0 1515 904" fill="none" xmlns="http://www.w3.org/2000/svg">
<line x1="1515" y1="61.5" x2="-405" y2="61.5002" stroke="white" stroke-opacity="0.03" stroke-width="3"/>
<line x1="1515" y1="1.5" x2="-405" y2="1.50017" stroke="white" stroke-opacity="0.03" stroke-width="3"/>
<line x1="1515" y1="421.5" x2="-405" y2="421.5" stroke="white" stroke-opacity="0.03" stroke-width="3"/>
<line x1="1515" y1="781.5" x2="-405" y2="781.5" stroke="white" stroke-opacity="0.03" stroke-width="3"/>
<line x1="1515" y1="241.5" x2="-405" y2="241.5" stroke="white" stroke-opacity="0.03" stroke-width="3"/>
<line x1="1515" y1="601.5" x2="-405" y2="601.5" stroke="white" stroke-opacity="0.03" stroke-width="3"/>
<line x1="1515" y1="121.5" x2="-405" y2="121.5" stroke="white" stroke-opacity="0.03" stroke-width="3"/>
<line x1="1515" y1="481.5" x2="-405" y2="481.5" stroke="white" stroke-opacity="0.03" stroke-width="3"/>
<line x1="1515" y1="841.5" x2="-405" y2="841.5" stroke="white" stroke-opacity="0.03" stroke-width="3"/>
<line x1="1515" y1="301.5" x2="-405" y2="301.5" stroke="white" stroke-opacity="0.03" stroke-width="3"/>
<line x1="1515" y1="661.5" x2="-405" y2="661.5" stroke="white" stroke-opacity="0.03" stroke-width="3"/>
<line x1="1515" y1="181.5" x2="-405" y2="181.5" stroke="white" stroke-opacity="0.03" stroke-width="3"/>
<line x1="1515" y1="541.5" x2="-405" y2="541.5" stroke="white" stroke-opacity="0.03" stroke-width="3"/>
<line x1="1515" y1="901.5" x2="-405" y2="901.5" stroke="white" stroke-opacity="0.03" stroke-width="3"/>
<line x1="1515" y1="361.5" x2="-405" y2="361.5" stroke="white" stroke-opacity="0.03" stroke-width="3"/>
<line x1="1515" y1="721.5" x2="-405" y2="721.5" stroke="white" stroke-opacity="0.03" stroke-width="3"/>
<line x1="1514" y1="4.37114e-08" x2="1514" y2="903" stroke="white" stroke-opacity="0.03" stroke-width="2"/>
<line x1="434" y1="1" x2="434" y2="904" stroke="white" stroke-opacity="0.03" stroke-width="2"/>
<line x1="974" y1="4.37114e-08" x2="974" y2="903" stroke="white" stroke-opacity="0.03" stroke-width="2"/>
<line x1="1454.5" y1="6.55671e-08" x2="1454.5" y2="903" stroke="white" stroke-opacity="0.03" stroke-width="3"/>
<line x1="374.5" y1="1" x2="374.5" y2="904" stroke="white" stroke-opacity="0.03" stroke-width="3"/>
<line x1="914.5" y1="6.55671e-08" x2="914.5" y2="903" stroke="white" stroke-opacity="0.03" stroke-width="3"/>
<line x1="1214.5" y1="6.55671e-08" x2="1214.5" y2="903" stroke="white" stroke-opacity="0.03" stroke-width="3"/>
<line x1="134.5" y1="1" x2="134.5" y2="904" stroke="white" stroke-opacity="0.03" stroke-width="3"/>
<line x1="674.5" y1="6.55671e-08" x2="674.5" y2="903" stroke="white" stroke-opacity="0.03" stroke-width="3"/>
<line x1="1394.5" y1="6.55671e-08" x2="1394.5" y2="903" stroke="white" stroke-opacity="0.03" stroke-width="3"/>
<line x1="314.5" y1="1" x2="314.5" y2="904" stroke="white" stroke-opacity="0.03" stroke-width="3"/>
<line x1="854.5" y1="6.55671e-08" x2="854.5" y2="903" stroke="white" stroke-opacity="0.03" stroke-width="3"/>
<line x1="1154.5" y1="6.55671e-08" x2="1154.5" y2="903" stroke="white" stroke-opacity="0.03" stroke-width="3"/>
<line x1="74.5001" y1="1" x2="74.5001" y2="904" stroke="white" stroke-opacity="0.03" stroke-width="3"/>
<line x1="614.5" y1="6.55671e-08" x2="614.5" y2="903" stroke="white" stroke-opacity="0.03" stroke-width="3"/>
<line x1="1274.5" y1="6.55671e-08" x2="1274.5" y2="903" stroke="white" stroke-opacity="0.03" stroke-width="3"/>
<line x1="194.5" y1="1" x2="194.5" y2="904" stroke="white" stroke-opacity="0.03" stroke-width="3"/>
<line x1="734.5" y1="6.55671e-08" x2="734.5" y2="903" stroke="white" stroke-opacity="0.03" stroke-width="3"/>
<line x1="1034.5" y1="6.55671e-08" x2="1034.5" y2="903" stroke="white" stroke-opacity="0.03" stroke-width="3"/>
<line x1="494.5" y1="6.55671e-08" x2="494.5" y2="903" stroke="white" stroke-opacity="0.03" stroke-width="3"/>
<line x1="1334.5" y1="6.55671e-08" x2="1334.5" y2="903" stroke="white" stroke-opacity="0.03" stroke-width="3"/>
<line x1="254.5" y1="1" x2="254.5" y2="904" stroke="white" stroke-opacity="0.03" stroke-width="3"/>
<line x1="794.5" y1="6.55671e-08" x2="794.5" y2="903" stroke="white" stroke-opacity="0.03" stroke-width="3"/>
<line x1="1094.5" y1="6.55671e-08" x2="1094.5" y2="903" stroke="white" stroke-opacity="0.03" stroke-width="3"/>
<line x1="14.5001" y1="1" x2="14.5001" y2="904" stroke="white" stroke-opacity="0.03" stroke-width="3"/>
<line x1="554.5" y1="6.55671e-08" x2="554.5" y2="903" stroke="white" stroke-opacity="0.03" stroke-width="3"/>
</svg>
